<svg width="25" height="24" viewBox="0 0 25 24" fill="none" xmlns="http://www.w3.org/2000/svg">
<path d="M6.57185 8.96994C6.57185 5.65994 9.26185 2.96994 12.5718 2.96994C15.8718 2.96994 18.5718 5.66994 18.5718 8.96994V11.8599C18.5718 12.4699 18.8318 13.3999 19.1318 13.9199L20.2818 15.8299C20.9418 16.9299 20.4118 18.3599 19.2018 18.7599C14.8918 20.1999 10.2418 20.1999 5.93185 18.7599C4.63185 18.3199 4.14185 17.0099 4.85185 15.8299L6.00185 13.9199C6.31185 13.3999 6.57185 12.4699 6.57185 11.8599V8.96994Z" stroke="#9C9FAA" stroke-width="1.5" stroke-miterlimit="10" stroke-linecap="round"/>
<path d="M14.4219 3.25994C14.1119 3.16994 13.7919 3.09994 13.4619 3.05994C12.5019 2.93994 11.5819 3.00994 10.7219 3.25994C11.0119 2.51994 11.7319 1.99994 12.5719 1.99994C13.4119 1.99994 14.1319 2.51994 14.4219 3.25994Z" stroke="#9C9FAA" stroke-width="1.5" stroke-miterlimit="10" stroke-linecap="round" stroke-linejoin="round"/>
<path d="M15.5718 19.1199C15.5718 20.7699 14.2218 22.1199 12.5718 22.1199C11.7518 22.1199 10.9918 21.7799 10.4518 21.2399C9.91178 20.6999 9.57178 19.9399 9.57178 19.1199" stroke="#9C9FAA" stroke-width="1.5" stroke-miterlimit="10"/>
</svg>
