<svg width="68" height="80" viewBox="0 0 68 80" fill="none" xmlns="http://www.w3.org/2000/svg">
<path fill-rule="evenodd" clip-rule="evenodd" d="M17 0C7.61116 0 0 7.69954 0 17.1974V51.5922C0 60.6454 6.91515 68.0647 15.6936 68.7396L13.6354 74.4599C12.8648 76.6019 13.9565 78.9703 16.0739 79.75C18.1914 80.5296 20.5326 79.4252 21.3033 77.2831L24.0942 69.5262C24.1818 69.2827 24.2454 69.0363 24.2861 68.7896H44.0873C44.1254 68.9606 44.1746 69.1312 44.2354 69.3003L47.0263 77.0572C47.797 79.1992 50.1383 80.3037 52.2557 79.524C54.3731 78.7444 55.4649 76.3759 54.6942 74.2339L52.7047 68.7042C61.2931 67.8392 68 60.508 68 51.5922V17.1974C68 7.69954 60.3888 0 51 0H17ZM22.44 11.0063C16.8067 11.0063 12.24 15.6261 12.24 21.3248V33.7069C12.24 39.4056 16.8067 44.0253 22.44 44.0253H45.56C51.1933 44.0253 55.76 39.4056 55.76 33.7069V21.3248C55.76 15.6261 51.1933 11.0063 45.56 11.0063H22.44ZM21.76 52.968C21.76 55.6274 19.6289 57.7833 17 57.7833C14.3711 57.7833 12.24 55.6274 12.24 52.968C12.24 50.3086 14.3711 48.1527 17 48.1527C19.6289 48.1527 21.76 50.3086 21.76 52.968ZM51 57.7833C53.6289 57.7833 55.76 55.6274 55.76 52.968C55.76 50.3086 53.6289 48.1527 51 48.1527C48.3711 48.1527 46.24 50.3086 46.24 52.968C46.24 55.6274 48.3711 57.7833 51 57.7833Z" fill="#49AF9E"/>
</svg>
